<svg width="512" height="512" viewBox="0 0 512 512" fill="none" xmlns="http://www.w3.org/2000/svg">
<path d="M512 256.019C512 114.993 396.894 0 255.963 0C114.958 0 0 115.032 0 256.019C0 397.007 114.958 512 255.963 512C396.931 512 511.926 397.007 511.926 256.019H512Z" fill="#E3CC87"/>
<path d="M252.271 272.251H234.811C232.768 272.251 231.081 273.999 231.081 276.172V293.732C231.081 295.905 232.768 297.653 234.811 297.653H252.271C254.314 297.653 256 295.905 256 293.732V276.172C256 273.999 254.314 272.251 252.271 272.251ZM252.271 335.07H234.811C232.768 335.07 231.081 336.819 231.081 338.992V356.551C231.081 358.724 232.768 360.473 234.811 360.473H252.271C254.314 360.473 256 358.724 256 356.551V338.992C256 336.819 254.314 335.07 252.271 335.07ZM172.574 276.172V293.732C172.574 295.905 174.237 297.653 176.327 297.653H222.387C224.452 297.653 226.114 295.905 226.114 293.732V276.172C226.114 273.999 224.428 272.226 222.387 272.226H176.327C174.237 272.226 172.574 273.999 172.574 276.172ZM172.574 338.992V356.551C172.574 358.724 174.237 360.473 176.327 360.473H222.387C224.452 360.473 226.114 358.724 226.114 356.551V338.992C226.114 336.819 224.428 335.07 222.387 335.07H176.327C174.237 335.07 172.574 336.819 172.574 338.992ZM192.504 303.648H146.444C144.377 303.648 142.714 305.421 142.714 307.569V325.129C142.714 327.302 144.377 329.075 146.444 329.075H192.504C194.571 329.075 196.233 327.302 196.233 325.129V307.569C196.233 305.421 194.571 303.648 192.504 303.648ZM252.271 303.648H206.187C204.12 303.648 202.457 305.421 202.457 307.569V325.129C202.457 327.302 204.12 329.075 206.187 329.075H252.271C254.314 329.075 256 327.302 256 325.129V307.569C256 305.421 254.314 303.648 252.271 303.648ZM252.271 366.492H206.187C204.12 366.492 202.457 368.241 202.457 370.414V387.973C202.457 390.146 204.12 391.895 206.187 391.895H252.271C254.314 391.895 256 390.146 256 387.973V370.414C256 368.241 254.314 366.492 252.271 366.492ZM192.504 366.492H146.444C144.377 366.492 142.714 368.241 142.714 370.414V387.973C142.714 390.146 144.377 391.895 146.444 391.895H192.504C194.571 391.895 196.233 390.146 196.233 387.973V370.414C196.233 368.241 194.571 366.492 192.504 366.492ZM71.3313 190.798C71.5688 202.787 80.7144 212.454 92.1404 212.454C103.543 212.454 112.807 202.787 112.926 190.798C116.964 190.798 120.195 187.251 120.195 182.98C120.195 166.719 107.605 153.456 92.1404 153.456C76.6523 153.456 64.0386 166.719 64.0386 182.98C64.0386 187.251 67.3167 190.698 71.3313 190.798ZM77.1987 168.143V170.366C77.1987 172.539 78.8615 174.288 80.9281 174.288C82.9948 174.288 84.6576 172.539 84.6576 170.366V162.848C85.8691 162.348 87.1044 161.974 88.3871 161.724V170.366C88.3871 172.539 90.0737 174.288 92.1404 174.288C94.1833 174.288 95.8698 172.539 95.8698 170.366V161.724C97.1526 161.974 98.4116 162.348 99.5993 162.848V170.366C99.5993 172.539 101.262 174.288 103.329 174.288C105.395 174.288 107.082 172.539 107.082 170.366V168.143C110.55 172.015 112.736 177.21 112.736 182.98H71.5213C71.5213 177.21 73.7067 172.015 77.1987 168.143ZM85.0377 216.65H99.2478V248.247H85.0377V216.65ZM154.164 276.222C158.915 277.396 163.737 274.274 164.83 269.203C165.352 266.806 164.83 264.433 163.808 262.459L168.108 244.001L173.453 245.4C174.617 245.674 175.828 245.4 176.731 244.575C177.633 243.776 178.132 242.577 178.037 241.328L175.591 203.662C175.591 202.762 174.925 201.988 174.07 201.763C173.239 201.513 172.36 202.013 171.909 202.712L153.214 234.959C152.596 236.008 152.501 237.332 152.952 238.481C153.404 239.63 154.354 240.479 155.494 240.779L160.839 242.152L157.204 257.764L138.533 253.243L117.463 220.796C114.945 216.925 111.192 216.65 106.702 216.65V290.135H117.392V373.986H96.0124V314.938H88.2446V374.011H66.8654V290.135H77.555V216.65C72.4002 216.65 68.1719 217.274 66.034 222.195L36.3406 290.56C34.3215 295.28 36.3406 300.825 40.759 302.974C45.2011 305.097 50.4984 302.974 52.5413 298.328L66.8891 265.307V282.267C62.7558 282.267 59.4302 285.789 59.4302 290.135V374.011C59.4302 378.332 62.7558 381.854 66.8891 381.854C66.8891 388.048 71.6638 393.094 77.5787 393.094C83.4699 393.094 88.2683 388.048 88.2683 381.854C89.6699 381.854 91.0001 381.429 92.1404 380.705C93.2806 381.429 94.6108 381.854 96.0361 381.854C96.0361 388.048 100.811 393.094 106.726 393.094C112.617 393.094 117.415 388.048 117.415 381.854C121.525 381.854 124.874 378.332 124.874 374.011V290.135C124.874 285.789 121.525 282.267 117.415 282.267V253.842L125.824 266.806C127.083 268.754 129.008 270.128 131.169 270.652L154.211 276.222H154.164Z" fill="white"/>
<path d="M200.785 202.043V81.7846L196.602 59.7995L200.994 46.6084H240.941L281.935 130.152H286.118L320 46.6084H361.621L363.713 59.7995L361.621 80.9052V202.043H323.765L324.392 183.356V122.017H322.092L313.726 143.123L294.902 180.058H269.804L240.941 122.017H238.85V139.825L240.941 202.043H200.785Z" fill="white"/>
<path d="M296.994 406.065V285.586L292.811 263.601L296.994 250.41H368.105C383.861 250.41 396.479 253.488 405.961 259.644C415.442 265.8 420.183 275.767 420.183 289.544C420.183 296.433 419.067 302.661 416.837 308.231C414.606 313.801 411.399 318.124 407.216 321.202C416.697 324.427 423.669 329.337 428.131 335.932C432.593 342.528 434.824 350.369 434.824 359.456C434.824 375.432 430.362 387.231 421.438 394.852C412.654 402.327 399.756 406.065 382.745 406.065H296.994ZM334.641 310.869H367.686C372.427 310.869 375.843 309.697 377.935 307.352C380.026 305.007 381.072 301.929 381.072 298.118C381.072 293.281 379.538 289.983 376.471 288.225C373.403 286.466 369.778 285.586 365.595 285.586H334.641V310.869ZM334.641 370.889H376.471C381.49 370.889 385.185 370.229 387.556 368.91C390.065 367.591 391.669 365.906 392.366 363.853C393.203 361.801 393.621 359.676 393.621 357.478C393.621 353.667 392.296 350.443 389.647 347.804C387.137 345.02 383.442 343.627 378.562 343.627H334.641V370.889Z" fill="white"/>
</svg>
